<?xml version="1.0" encoding="utf-8"?>
<!-- Generator: Adobe Illustrator 18.0.0, SVG Export Plug-In . SVG Version: 6.00 Build 0)  -->
<!DOCTYPE svg PUBLIC "-//W3C//DTD SVG 1.1//EN" "http://www.w3.org/Graphics/SVG/1.1/DTD/svg11.dtd">
<svg version="1.1" id="Layer_1" xmlns="http://www.w3.org/2000/svg" xmlns:xlink="http://www.w3.org/1999/xlink" x="0px" y="0px"
	 viewBox="0 0 204.3 118.4" enable-background="new 0 0 204.3 118.4" xml:space="preserve">
<path fill="#EAEBF2" d="M10.3,24.1c-1.3,13,7.9,24.3,20.9,25.6c0.5,0,0.9,0.1,1.4,0.1c9.8,8.4,30.1,26.3,40.6,38.9L87,77.4
	C76.4,65.2,62.9,41.6,56.6,30.2c0.1-0.5,0.1-0.9,0.2-1.4c1.3-13-7.9-24.3-20.9-25.6C22.9,1.9,11.6,11.1,10.3,24.1z M55.5,45.5
	l5.8,7.2c1.7,2,1.4,4.8-0.7,6.5l-0.5,0.4c-2,1.7-4.8,1.4-6.5-0.7l-5.8-7.2c-1.7-2-1.4-4.8,0.7-6.5l0.5-0.4
	C51.1,43.2,53.8,43.5,55.5,45.5z M49.1,20.9L25,40.6c-5.2-3.1-8.4-9.3-7.7-15.8c0.9-9.3,9.1-15.5,17.9-14.6
	C41.8,10.8,47.1,15.2,49.1,20.9z M89.6,21.9c4.8-0.8,9.4,1.2,13,5.7l12.1,14.8l-1.5,1.3l-12.1-14.8c-3.1-3.9-7.1-5.6-11.1-5
	c-4,0.6-7.5,3.6-9,7.6c-1.5,4-0.7,8.3,2.3,12L104.9,70c5.7,7,7.7,13.5,7.2,18.5c-0.4,3.7-2.1,6.8-4.6,8.8c-4.9,4-13.4,4.2-19.6-3.3
	l-3.8-4.6l1.5-1.3l3.8,4.6c2.4,3,5.4,4.8,8.7,5.2c3,0.4,5.8-0.4,8.1-2.2c2.7-2.2,4-5.5,3.9-9.4c-0.1-4.7-2.5-9.9-6.8-15.2L81.6,44.7
	c-3.4-4.2-4.4-9.3-2.6-14C80.7,26.1,84.9,22.7,89.6,21.9z"/>
<rect x="111.5" y="53.6" fill="none" width="180.1" height="57.2"/>
<text transform="matrix(1 0 0 1 111.4654 99.2138)" fill="#EAEBF2" font-family="'OpenSans-CondensedLightItalic'" font-size="60">ebify</text>
</svg>
